<svg xmlns="http://www.w3.org/2000/svg" viewBox="0 0 512 512" width="512" height="512">
  <!-- Background -->
  <rect width="512" height="512" rx="100" fill="#4f46e5"/>

  <!-- Mane outer ring -->
  <circle cx="256" cy="226" r="176" fill="#b45309"/>
  <!-- Mane inner -->
  <circle cx="256" cy="226" r="148" fill="#d97706"/>

  <!-- Ears -->
  <circle cx="132" cy="120" r="54" fill="#b45309"/>
  <circle cx="380" cy="120" r="54" fill="#b45309"/>
  <circle cx="132" cy="120" r="32" fill="#fbbf24"/>
  <circle cx="380" cy="120" r="32" fill="#fbbf24"/>

  <!-- Face -->
  <circle cx="256" cy="244" r="132" fill="#fde68a"/>

  <!-- Eyes -->
  <circle cx="202" cy="216" r="24" fill="#451a03"/>
  <circle cx="310" cy="216" r="24" fill="#451a03"/>
  <circle cx="210" cy="208" r="9" fill="white"/>
  <circle cx="318" cy="208" r="9" fill="white"/>

  <!-- Nose -->
  <ellipse cx="256" cy="266" rx="21" ry="15" fill="#92400e"/>

  <!-- Mouth -->
  <path d="M224 298 Q256 328 288 298" stroke="#92400e" stroke-width="9" fill="none" stroke-linecap="round"/>

  <!-- Checkmark badge -->
  <circle cx="400" cy="400" r="88" fill="white"/>
  <circle cx="400" cy="400" r="74" fill="#16a34a"/>
  <polyline points="365,400 390,428 438,368" stroke="white" stroke-width="15" stroke-linecap="round" stroke-linejoin="round" fill="none"/>
</svg>
